<svg width="33" height="33" viewBox="0 0 33 33" fill="none" xmlns="http://www.w3.org/2000/svg">
<rect width="33" height="33" rx="16.5" fill="white"/>
<path d="M13.9953 28.82C14.3377 28.7121 14.5278 28.3471 14.42 28.0047C14.3121 27.6623 13.9471 27.4722 13.6047 27.58L13.9953 28.82ZM8.16506 24.3713L7.53637 24.2062L7.20625 25.4636L7.83494 25.6287L8.16506 24.3713ZM19.55 32.2V32.85H20.85V32.2H19.55ZM19.5 24.5L19.4305 23.8537C19.1813 23.8805 18.9697 24.0482 18.8867 24.2848C18.8037 24.5213 18.8641 24.7845 19.0419 24.9612L19.5 24.5ZM25 18.46L25.65 18.46L25.65 18.4579L25 18.46ZM23.667 15.25L23.0611 15.0147C22.9679 15.2545 23.025 15.5268 23.2067 15.709L23.667 15.25ZM23.587 12.023L24.1805 11.7579C24.1022 11.5825 23.9503 11.4508 23.7656 11.398L23.587 12.023ZM20.111 13.29L19.9471 13.919C20.1233 13.9649 20.3107 13.9348 20.4637 13.836L20.111 13.29ZM13.889 13.29L13.5364 13.8361C13.6894 13.9348 13.8768 13.9649 14.0529 13.919L13.889 13.29ZM10.413 12.023L10.2343 11.3981C10.0496 11.4509 9.8978 11.5826 9.8195 11.7579L10.413 12.023ZM10.333 15.25L10.7932 15.709C10.9749 15.5268 11.0321 15.2546 10.9389 15.0147L10.333 15.25ZM9 18.486L9.65 18.486L9.65 18.4843L9 18.486ZM14.5 24.5L14.9588 24.9604C15.1353 24.7846 15.1957 24.5234 15.1144 24.288C15.0332 24.0525 14.8245 23.8842 14.5772 23.8546L14.5 24.5ZM13.8 26.6H14.45C14.45 26.5841 14.4494 26.5682 14.4483 26.5524L13.8 26.6ZM13.15 32.2V32.85H14.45V32.2H13.15ZM13.6047 27.58C12.6199 27.8902 11.9744 27.8621 11.5303 27.7156C11.0882 27.5697 10.7564 27.2772 10.4512 26.8794C10.2971 26.6784 10.1563 26.4593 10.0113 26.2246C9.87206 25.9992 9.71954 25.7434 9.5646 25.5149C9.26232 25.0691 8.83844 24.5481 8.16506 24.3713L7.83494 25.6287C8.01856 25.6769 8.21243 25.8371 8.48865 26.2445C8.62296 26.4426 8.74987 26.6562 8.90528 26.9078C9.05491 27.15 9.2239 27.4153 9.41977 27.6706C9.8146 28.1853 10.3435 28.6928 11.1229 28.9501C11.9004 29.2067 12.8371 29.1848 13.9953 28.82L13.6047 27.58ZM20.85 26.5C20.85 25.9936 20.8272 25.5507 20.6913 25.1427C20.5479 24.712 20.2995 24.378 19.9581 24.0388L19.0419 24.9612C19.2995 25.217 19.4011 25.383 19.4579 25.5535C19.5223 25.7467 19.55 26.0064 19.55 26.5H20.85ZM19.5695 25.1463C21.0049 24.992 22.5435 24.6319 23.722 23.6117C24.9288 22.5671 25.65 20.9287 25.65 18.46H24.35C24.35 20.6653 23.7167 21.8969 22.8712 22.6288C21.9975 23.3851 20.7861 23.708 19.4305 23.8537L19.5695 25.1463ZM25.65 18.4579C25.6456 17.0827 25.0983 15.7649 24.1273 14.791L23.2067 15.709C23.9358 16.4401 24.3467 17.4296 24.35 18.4621L25.65 18.4579ZM24.2729 15.4853C24.5046 14.8887 24.6157 14.2522 24.5999 13.6124L23.3003 13.6446C23.3119 14.1126 23.2306 14.5783 23.0611 15.0147L24.2729 15.4853ZM24.5999 13.6124C24.584 12.9726 24.4415 12.3423 24.1805 11.7579L22.9935 12.2881C23.1844 12.7155 23.2887 13.1766 23.3003 13.6446L24.5999 13.6124ZM23.587 12.023C23.7656 11.398 23.765 11.3978 23.7643 11.3977C23.7641 11.3976 23.7635 11.3974 23.7631 11.3973C23.7622 11.3971 23.7614 11.3968 23.7605 11.3966C23.7588 11.3961 23.7569 11.3956 23.755 11.3951C23.7513 11.3941 23.7472 11.393 23.7429 11.3919C23.7343 11.3897 23.7245 11.3874 23.7137 11.3851C23.6921 11.3803 23.6662 11.3754 23.6359 11.3707C23.5753 11.3614 23.4976 11.3534 23.4024 11.3508C23.2116 11.3457 22.9531 11.3627 22.6229 11.4332C21.9636 11.5741 21.0218 11.9279 19.7583 12.744L20.4637 13.836C21.6262 13.0851 22.4224 12.8054 22.8946 12.7045C23.1301 12.6542 23.2858 12.6482 23.3677 12.6504C23.4088 12.6515 23.4321 12.6547 23.4384 12.6556C23.4415 12.6561 23.4406 12.6561 23.4355 12.655C23.433 12.6544 23.4295 12.6536 23.4249 12.6524C23.4227 12.6519 23.4202 12.6512 23.4174 12.6505C23.416 12.6501 23.4146 12.6497 23.4131 12.6493C23.4124 12.6491 23.4116 12.6489 23.4108 12.6487C23.4104 12.6486 23.4098 12.6484 23.4096 12.6483C23.409 12.6482 23.4084 12.648 23.587 12.023ZM20.2749 12.661C18.1275 12.1013 15.8725 12.1013 13.7251 12.661L14.0529 13.919C15.9854 13.4153 18.0146 13.4153 19.9471 13.919L20.2749 12.661ZM14.2416 12.7439C12.9777 11.9279 12.0359 11.5741 11.3767 11.4332C11.0466 11.3627 10.7882 11.3457 10.5975 11.3508C10.5023 11.3534 10.4246 11.3614 10.364 11.3707C10.3337 11.3754 10.3078 11.3804 10.2861 11.3851C10.2753 11.3875 10.2656 11.3898 10.257 11.392C10.2526 11.3931 10.2486 11.3941 10.2448 11.3951C10.2429 11.3956 10.2411 11.3961 10.2393 11.3966C10.2385 11.3969 10.2376 11.3971 10.2368 11.3973C10.2363 11.3975 10.2357 11.3976 10.2355 11.3977C10.2349 11.3979 10.2343 11.3981 10.413 12.023C10.5917 12.6479 10.5911 12.6481 10.5905 12.6483C10.5903 12.6483 10.5897 12.6485 10.5893 12.6486C10.5886 12.6488 10.5878 12.6491 10.587 12.6493C10.5855 12.6497 10.5841 12.6501 10.5827 12.6504C10.58 12.6512 10.5775 12.6518 10.5752 12.6524C10.5707 12.6536 10.5671 12.6544 10.5646 12.6549C10.5595 12.656 10.5585 12.6561 10.5617 12.6556C10.5679 12.6546 10.5911 12.6515 10.6322 12.6504C10.714 12.6482 10.8695 12.6542 11.105 12.7045C11.5771 12.8054 12.3733 13.0851 13.5364 13.8361L14.2416 12.7439ZM9.8195 11.7579C9.55853 12.3423 9.41599 12.9726 9.40013 13.6124L10.6997 13.6446C10.7113 13.1766 10.8156 12.7155 11.0065 12.2881L9.8195 11.7579ZM9.40013 13.6124C9.38427 14.2522 9.4954 14.8887 9.72709 15.4853L10.9389 15.0147C10.7694 14.5783 10.6881 14.1126 10.6997 13.6446L9.40013 13.6124ZM9.87276 14.791C9.38831 15.2768 9.00444 15.8533 8.74314 16.4876L9.94515 16.9828C10.1413 16.5065 10.4295 16.0737 10.7932 15.709L9.87276 14.791ZM8.74314 16.4876C8.48184 17.122 8.34825 17.8016 8.35 18.4877L9.65 18.4843C9.64868 17.9693 9.74898 17.459 9.94515 16.9828L8.74314 16.4876ZM8.35 18.486C8.35 20.9398 9.07247 22.5633 10.2797 23.6007C11.4566 24.612 12.9928 24.9743 14.4228 25.1454L14.5772 23.8546C13.2162 23.6917 12.0024 23.367 11.127 22.6148C10.282 21.8887 9.65 20.6722 9.65 18.486H8.35ZM14.0412 24.0396C13.2809 24.7973 13.082 25.6976 13.1517 26.6476L14.4483 26.5524C14.398 25.8684 14.5371 25.3807 14.9588 24.9604L14.0412 24.0396ZM13.15 26.6V32.2H14.45V26.6H13.15ZM20.85 32.2V26.5H19.55V32.2H20.85Z" fill="#1B1B1B"/>
</svg>
